<svg xmlns="http://www.w3.org/2000/svg" viewBox="0 0 1200 630" role="img" aria-label="Movie Seat Finder preview">
  <rect width="1200" height="630" fill="#e7e4dd"/>
  <rect x="70" y="70" width="1060" height="490" rx="32" fill="#ffffff" stroke="#cdc6b8" stroke-width="3"/>
  <rect x="118" y="124" width="150" height="150" rx="34" fill="#b23b34"/>
  <path d="M158 202v-40a28 28 0 0 1 28-28h44a28 28 0 0 1 28 28v40" fill="none" stroke="#fff4ee" stroke-width="14" stroke-linecap="round" stroke-linejoin="round"/>
  <path d="M139 202a25 25 0 0 1 25 25v33h88v-33a25 25 0 0 1 25-25" fill="none" stroke="#fff4ee" stroke-width="14" stroke-linecap="round" stroke-linejoin="round"/>
  <text x="310" y="180" fill="#2a2521" font-family="Georgia, 'Times New Roman', serif" font-size="72" font-weight="600">Movie Seat Finder</text>
  <text x="312" y="242" fill="#57514a" font-family="Arial, Helvetica, sans-serif" font-size="34">Find real showtimes with reserved seating</text>
  <text x="312" y="294" fill="#57514a" font-family="Arial, Helvetica, sans-serif" font-size="34">and preview live seat maps before you buy.</text>
  <rect x="132" y="368" width="936" height="36" rx="18" fill="#b23b34"/>
  <text x="600" y="394" fill="#fff4ee" text-anchor="middle" font-family="Arial, Helvetica, sans-serif" font-size="22" font-weight="700">SCREEN</text>
  <g fill="#f8f5ee" stroke="#bdb5a4" stroke-width="3">
    <rect x="226" y="442" width="42" height="34" rx="9"/>
    <rect x="286" y="442" width="42" height="34" rx="9"/>
    <rect x="346" y="442" width="42" height="34" rx="9"/>
    <rect x="406" y="442" width="42" height="34" rx="9"/>
    <rect x="466" y="442" width="42" height="34" rx="9"/>
    <rect x="526" y="442" width="42" height="34" rx="9"/>
    <rect x="586" y="442" width="42" height="34" rx="9"/>
    <rect x="646" y="442" width="42" height="34" rx="9"/>
    <rect x="706" y="442" width="42" height="34" rx="9"/>
    <rect x="766" y="442" width="42" height="34" rx="9"/>
    <rect x="826" y="442" width="42" height="34" rx="9"/>
    <rect x="886" y="442" width="42" height="34" rx="9"/>
  </g>
  <g fill="#b23b34" stroke="#6e201d" stroke-width="3">
    <rect x="526" y="494" width="42" height="34" rx="9"/>
    <rect x="586" y="494" width="42" height="34" rx="9"/>
    <rect x="646" y="494" width="42" height="34" rx="9"/>
  </g>
</svg>
